<svg width="13" height="22" viewBox="0 0 13 22" fill="none" xmlns="http://www.w3.org/2000/svg">
<path d="M5.43432 15.2491C3.75598 15.0741 2.24271 14.6607 0.947106 13.6474C0.786346 13.5213 0.620372 13.3998 0.47367 13.259C-0.0934102 12.7144 -0.150549 12.0906 0.298172 11.4478C0.682046 10.8977 1.32644 10.7506 1.99624 11.0664C2.12594 11.1276 2.24951 11.204 2.36787 11.2861C4.78244 12.9452 8.09944 12.991 10.5231 11.3607C10.7632 11.1766 11.0199 11.0265 11.3174 10.9499C11.8958 10.8013 12.4352 11.0138 12.7456 11.5199C13.1002 12.0979 13.0957 12.662 12.6588 13.1107C11.9885 13.7986 11.1824 14.2963 10.2868 14.6437C9.43993 14.972 8.51233 15.1373 7.59426 15.2471C7.7328 15.3979 7.7981 15.472 7.88471 15.5591C9.13134 16.8116 10.3834 18.0589 11.6259 19.3153C12.0493 19.7434 12.1377 20.2742 11.9046 20.7721C11.6498 21.3163 11.0793 21.6743 10.5199 21.636C10.1655 21.6115 9.88911 21.4351 9.64355 21.1877C8.7028 20.241 7.74436 19.3119 6.82266 18.3473C6.55442 18.0668 6.42541 18.1199 6.18869 18.3634C5.24227 19.3377 4.28043 20.2971 3.31293 21.251C2.87849 21.6793 2.36152 21.7564 1.8577 21.5117C1.32214 21.2521 0.981344 20.7054 1.00765 20.156C1.02579 19.7844 1.20854 19.5005 1.46362 19.2459C2.69732 18.014 3.92762 16.7789 5.15838 15.545C5.23978 15.4629 5.31573 15.3759 5.43432 15.2491Z" fill="white"/>
<path d="M6.4573 10.9582C3.46318 10.948 1.00802 8.46587 1.02548 5.46698C1.04272 2.435 3.49946 -0.00836789 6.52306 2.15396e-05C9.55278 0.00818423 11.9846 2.4867 11.9694 5.5502C11.954 8.54296 9.4818 10.9686 6.4573 10.9582ZM9.17842 5.47424C9.17321 3.98523 7.98735 2.79982 6.50129 2.79846C5.00275 2.79688 3.80624 4.00382 3.8178 5.50644C3.82891 6.98978 5.02498 8.16679 6.51512 8.16135C8.00073 8.15614 9.18341 6.96302 9.17842 5.47424Z" fill="white"/>
</svg>
