<svg width="38" height="55" viewBox="0 0 38 55" fill="none" xmlns="http://www.w3.org/2000/svg">
<path d="M31.72 22.4296C26.4258 15.5329 21.4102 10.8766 20.9556 1.73967C20.9365 1.35663 20.9384 1.22474 20.7185 0.844137C20.4985 0.463533 19.9461 0.468129 19.709 0.656125C19.4719 0.844122 19.1786 1.14999 18.7264 1.63717C7.41935 13.8198 -11.7044 44.7448 12.3469 53.6181C23.2141 57.6448 35.5037 52.1832 37.6595 40.352C38.8181 33.9971 35.489 27.2762 31.72 22.4296ZM12.0658 48.8716C9.47006 47.3488 8.03285 44.757 7.22625 42.0628C6.87428 40.7157 6.86208 37.936 6.95007 36.6035C7.49269 34.2754 8.2113 32.0351 9.0179 29.7948C9.47253 31.7715 10.3671 33.7336 11.6137 35.1686C14.4881 38.3021 18.5186 39.6615 20.1318 43.6003C21.4812 46.8949 19.5134 49.3232 17.4187 49.6769C15.324 50.0307 13.4884 49.7648 12.0658 48.8716Z" fill="#283C80"/>
</svg>
