<svg width="24" height="14" viewBox="0 0 24 14" fill="none" xmlns="http://www.w3.org/2000/svg">
<path d="M22.947 11.9562C22.9175 11.897 22.8923 11.8462 22.8671 11.8039C22.4674 11.0806 21.7018 10.188 20.5745 9.13473L20.5492 9.10935L20.5366 9.09666L20.524 9.08397H20.5114C19.9982 8.59328 19.6743 8.26333 19.5396 8.09412C19.2915 7.77263 19.2368 7.44691 19.3714 7.11696C19.4681 6.86738 19.8299 6.33862 20.4525 5.53489C20.7806 5.10765 21.0414 4.76501 21.2349 4.50697C22.6189 2.65417 23.2204 1.46974 23.0353 0.95789L22.9638 0.839446C22.9175 0.767534 22.7913 0.699852 22.5936 0.64063C22.3917 0.581408 22.1351 0.568718 21.8238 0.611019L18.366 0.6364C18.3113 0.615249 18.2314 0.619479 18.1262 0.64063C18.0211 0.666011 17.9706 0.678701 17.9706 0.678701L17.9117 0.708312L17.8654 0.746383C17.8234 0.771764 17.7813 0.814065 17.735 0.873287C17.6887 0.932509 17.6467 1.00442 17.6172 1.08479C17.2386 2.05772 16.8138 2.96297 16.33 3.80054C16.0355 4.29969 15.7621 4.73117 15.5139 5.09919C15.2657 5.46721 15.0596 5.73371 14.8914 5.90714C14.7231 6.08058 14.5717 6.22017 14.4328 6.3217C14.2982 6.42745 14.1931 6.46975 14.1215 6.45283C14.05 6.43591 13.9827 6.41899 13.9154 6.4063C13.8018 6.33439 13.7135 6.23709 13.6462 6.11019C13.5789 5.98329 13.5326 5.82677 13.5074 5.64065C13.4821 5.45029 13.4695 5.28954 13.4653 5.14995C13.4611 5.01459 13.4653 4.82 13.4695 4.57042C13.4779 4.32084 13.4821 4.15164 13.4821 4.06281C13.4821 3.75824 13.4864 3.42406 13.499 3.0645C13.5116 2.70493 13.52 2.42152 13.5284 2.21424C13.5368 2.00696 13.541 1.78277 13.541 1.55011C13.541 1.31745 13.5284 1.13556 13.499 1.00019C13.4695 0.869057 13.4275 0.737923 13.3728 0.615249C13.3181 0.492575 13.234 0.395282 13.1246 0.32337C13.0152 0.255688 12.8806 0.200696 12.7207 0.158395C12.2959 0.0611019 11.7574 0.0103403 11.1012 0.00188006C9.61207 -0.0150405 8.65718 0.0822526 8.23231 0.293759C8.06405 0.382592 7.91261 0.501036 7.778 0.65755C7.63497 0.835216 7.61394 0.932509 7.71911 0.949429C8.19866 1.02134 8.53939 1.19478 8.74131 1.46974L8.81282 1.61356C8.86751 1.71931 8.9264 1.90544 8.98108 2.16771C9.03577 2.43421 9.07363 2.72608 9.09046 3.04757C9.12832 3.63556 9.12832 4.13895 9.09046 4.55773C9.04839 4.97651 9.01053 5.30223 8.97688 5.53489C8.93902 5.76755 8.88854 5.95791 8.81282 6.10173C8.74131 6.24555 8.69083 6.33439 8.6698 6.36823C8.64456 6.40207 8.62773 6.41899 8.6109 6.42745C8.50574 6.46552 8.40057 6.48667 8.287 6.48667C8.17342 6.48667 8.03881 6.43168 7.87896 6.31747C7.71911 6.20325 7.55084 6.05097 7.38258 5.85215C7.21011 5.65334 7.0166 5.37838 6.79786 5.02305C6.58332 4.66772 6.35617 4.24893 6.12481 3.7667L5.9313 3.4156C5.80931 3.1914 5.64525 2.86145 5.43913 2.42998C5.2288 1.9985 5.04792 1.58395 4.88807 1.17786C4.82497 1.00865 4.72822 0.881747 4.59781 0.792915L4.53892 0.754843C4.50106 0.721002 4.43375 0.687161 4.34542 0.65332C4.25708 0.615249 4.16453 0.589868 4.06778 0.572948L0.77822 0.598329C0.441693 0.598329 0.214536 0.674471 0.0925451 0.826756L0.0462726 0.898668C0.0126198 0.95366 0 1.01711 0 1.10594C0 1.19478 0.0252396 1.30476 0.0715122 1.43166C0.551064 2.56957 1.07689 3.66094 1.64057 4.71848C2.20426 5.77601 2.69643 6.62204 3.11288 7.26502C3.52934 7.908 3.9542 8.51713 4.38748 9.0882C4.82076 9.65927 5.10681 10.0273 5.24563 10.188C5.38444 10.3488 5.49802 10.4715 5.57795 10.5518L5.87662 10.8437C6.07012 11.0383 6.35196 11.2667 6.72214 11.5374C7.09653 11.8082 7.50878 12.0747 7.95888 12.3369C8.41319 12.5992 8.93902 12.8107 9.53636 12.9757C10.1379 13.1407 10.7226 13.2084 11.2905 13.1745H12.6703C12.9521 13.1491 13.1624 13.0603 13.3055 12.908L13.3517 12.8488C13.3854 12.8023 13.4148 12.7261 13.4401 12.6246C13.4695 12.5231 13.4821 12.4131 13.4821 12.2904C13.4737 11.9435 13.499 11.6305 13.5621 11.3556C13.621 11.0764 13.6883 10.8691 13.7682 10.7295C13.8439 10.5899 13.9322 10.4715 14.0248 10.3742C14.1215 10.2769 14.1889 10.2176 14.2309 10.2007C14.2688 10.1796 14.3024 10.1669 14.3277 10.1584C14.5212 10.095 14.7441 10.1584 15.0049 10.3446C15.2657 10.5349 15.5097 10.7676 15.7369 11.0468C15.964 11.3259 16.2375 11.6347 16.5614 11.9816C16.8811 12.3285 17.1629 12.5865 17.4027 12.7557L17.6425 12.8996C17.8023 12.9968 18.0126 13.0857 18.2693 13.166C18.5259 13.2464 18.7488 13.2676 18.9423 13.2253L22.0173 13.1787C22.3202 13.1787 22.56 13.128 22.724 13.0265C22.8923 12.9249 22.9933 12.8149 23.0227 12.6923C23.0564 12.5696 23.0564 12.4342 23.0269 12.282C23.0017 12.1254 22.9722 12.0197 22.947 11.9562Z" fill="white"/>
</svg>
