<svg width="135" height="25" viewBox="0 0 135 25" fill="none" xmlns="http://www.w3.org/2000/svg">
<path d="M61.3997 4.32377H60.9014L60.8997 4.82198L61.3997 4.82377C60.8997 4.82198 60.8997 4.82201 60.8997 4.82208V4.82239L60.8997 4.8236L60.8996 4.8284L60.8996 4.84737L60.8993 4.92133L60.8984 5.20214L60.8952 6.20527C60.8927 7.03595 60.8898 8.14491 60.8878 9.25783C60.8858 10.3706 60.8848 11.4879 60.8863 12.3351C60.887 12.7585 60.8884 13.1154 60.8906 13.3708C60.8917 13.4982 60.893 13.6021 60.8945 13.6769C60.8953 13.7139 60.8962 13.7465 60.8973 13.7722C60.8976 13.7792 60.898 13.7866 60.8984 13.7943C60.8988 13.8005 60.8992 13.8069 60.8996 13.8132C60.9002 13.8201 60.901 13.8302 60.9024 13.8417C60.9025 13.8427 60.9026 13.8441 60.9029 13.846C60.9159 13.9954 60.9208 14.1866 60.8994 14.3618C60.8752 14.5598 60.8277 14.6517 60.806 14.6758C60.7772 14.7078 60.67 14.7852 60.4106 14.8502C60.1648 14.9118 59.8356 14.9488 59.4349 14.9488C58.7561 14.9488 58.2619 14.8579 57.9493 14.7232C57.6638 14.6003 57.6029 14.4794 57.5899 14.4127V4.82377V4.32377H57.0899H53.2555H53.0583V1.03134V0.531342H52.5583H48.0901H47.5901V1.03134V14.6041H42.8614C42.6552 14.6041 42.5134 14.5928 42.4109 14.5241C42.3509 14.484 42.1889 14.3452 42.1889 13.7877V1V0.5H41.6889H37.2207H36.7207V1V13.6937C36.7207 14.1145 36.7455 16.5233 38.4796 18.2747C39.2575 19.0781 40.6493 19.992 42.8614 19.992H48.0585H49.1429V21.3726V21.8726H49.6429H53.4773H53.9773V21.3726V17.6649C54.026 17.7204 54.0768 17.7759 54.1298 17.8314L54.13 17.8317C55.3649 19.1229 57.1653 19.7099 59.4032 19.7099C59.9244 19.7099 60.4243 19.6791 60.8997 19.6039V19.7099H61.3997H65.2341H65.7341V19.2099V4.82377V4.32377H65.2341H61.3997Z" fill="#05559E" stroke="white"/>
<path d="M134.5 4.01035H134H129.215C126.254 4.01035 123.669 5.63909 122.332 8.04313V4.479V3.979H121.832H113.402H113.361L113.321 3.98566L113.131 4.01701L113.212 4.50911L113.131 4.01701C112.978 4.04227 111.732 4.30417 110.515 5.36346C109.278 6.44061 108.117 8.30347 108.117 11.4372C108.117 14.1343 109.169 16.1405 110.734 17.4646C112.288 18.7783 114.317 19.3968 116.254 19.3968H129.469H129.666V23.5669V24.0669H130.166H134H134.5V23.5669V4.51035V4.01035ZM119.969 13.5663L121.482 10.4289C121.404 10.8683 121.363 11.3204 121.363 11.7819C121.363 12.7711 121.567 13.737 121.91 14.6043H116.318C115.905 14.6043 115.052 14.5431 114.318 14.1189C113.626 13.7189 112.983 12.9676 112.983 11.4372C112.983 9.46735 113.736 8.90086 113.982 8.77151H116.913L114.791 13.1302L114.441 13.8491H115.24H119.518H119.832L119.969 13.5663ZM129.152 8.77151H129.666V14.6043H129.469H128.153C126.964 14.2061 126.103 13.0658 126.103 11.7819C126.103 10.1484 127.461 8.77151 129.152 8.77151Z" fill="#05559E" stroke="white"/>
<path d="M102.912 4.16699H102.597L102.461 4.45102L99.4896 10.6555L96.5181 4.45102L96.382 4.16699H96.0671H94.2608H91.1236H90.4264H89.9264V4.66699V7.4775C88.4901 5.47817 86.1271 4.16699 83.4548 4.16699C82.8957 4.16699 82.3719 4.22996 81.8853 4.3237H65.8672H65.3672V4.8237V8.61614V9.11614H65.8672H69.4551V19.2099V19.7099H69.9551H74.4233H74.9233V19.2099V9.55642V9.11614H76.0479L75.9499 9.3854C75.6462 10.2196 75.4761 11.0923 75.4761 12.0325C75.4761 16.3556 79.0311 19.8979 83.4231 19.8979C86.1064 19.8979 88.4542 18.5768 89.8947 16.5697V19.2099V19.7099H90.3947H94.2291H94.7291V19.2099V13.3914L96.5349 17.1687L96.535 17.1689L97.6123 19.4253L97.7482 19.7099H98.0635H100.82H101.136L101.272 19.4253L102.349 17.1687L102.349 17.1687L103.838 14.0514V19.2099V19.7099H104.338H108.172H108.672V19.2099V4.66699V4.16699H108.172H107.792H104.401H102.912ZM81.6162 9.94361L82.5906 9.14748H83.7566C83.7717 9.15058 83.7914 9.15482 83.8153 9.16037C83.8826 9.17603 83.9822 9.20195 84.1031 9.2416C84.3466 9.32143 84.6677 9.45401 84.9853 9.66399C85.6062 10.0745 86.2188 10.778 86.2188 12.0325C86.2188 13.5377 84.9584 14.7921 83.4231 14.7921C81.8877 14.7921 80.6274 13.5377 80.6274 12.0325C80.6274 11.1841 81 10.4471 81.6162 9.94361Z" fill="#05559E" stroke="white"/>
<path d="M28.5941 21.4027C30.7529 21.4027 32.673 20.2602 34.0375 18.4805C35.4017 16.7013 36.2311 14.2648 36.2311 11.5939C36.2311 8.92306 35.4017 6.48664 34.0375 4.70741C32.673 2.92769 30.7529 1.78516 28.5941 1.78516C26.4353 1.78516 24.5151 2.92769 23.1506 4.70741C21.7865 6.48664 20.957 8.92306 20.957 11.5939C20.957 14.2648 21.7865 16.7013 23.1506 18.4805C24.5151 20.2602 26.4353 21.4027 28.5941 21.4027Z" fill="#D32027" stroke="white"/>
<path d="M17.4788 18.3101C18.9828 18.3101 20.3101 17.5137 21.2455 16.2936C22.1806 15.074 22.7446 13.4107 22.7446 11.5938C22.7446 9.77684 22.1806 8.11354 21.2455 6.89394C20.3101 5.67384 18.9828 4.87744 17.4788 4.87744C15.9747 4.87744 14.6474 5.67384 13.712 6.89394C12.7769 8.11354 12.2129 9.77684 12.2129 11.5938C12.2129 13.4107 12.7769 15.074 13.712 16.2936C14.6474 17.5137 15.9747 18.3101 17.4788 18.3101Z" fill="#D32027" stroke="white"/>
<path d="M10.3402 16.2163C11.4009 16.2163 12.3269 15.6543 12.9718 14.8131C13.6163 13.9725 14.0007 12.8327 14.0007 11.594C14.0007 10.3553 13.6163 9.21552 12.9718 8.37486C12.3269 7.5337 11.4009 6.97168 10.3402 6.97168C9.27947 6.97168 8.35347 7.5337 7.70857 8.37486C7.06406 9.21552 6.67969 10.3553 6.67969 11.594C6.67969 12.8327 7.06406 13.9725 7.70857 14.8131C8.35347 15.6543 9.27947 16.2163 10.3402 16.2163Z" fill="#D32027" stroke="white"/>
<path d="M5.79773 14.9253C6.58512 14.9253 7.2637 14.5078 7.72949 13.9003C8.19491 13.2933 8.4685 12.4762 8.4685 11.594C8.4685 10.7118 8.19491 9.89478 7.72949 9.28775C7.2637 8.68021 6.58512 8.2627 5.79773 8.2627C5.01033 8.2627 4.33176 8.68021 3.86596 9.28775C3.40055 9.89478 3.12695 10.7118 3.12695 11.594C3.12695 12.4762 3.40055 13.2933 3.86596 13.9003C4.33176 14.5078 5.01033 14.9253 5.79773 14.9253Z" fill="#D32027" stroke="white"/>
<path d="M2.70682 14.3198C3.36609 14.3198 3.92867 13.9701 4.31051 13.4721C4.69197 12.9745 4.91364 12.3088 4.91364 11.5938C4.91364 10.8787 4.69197 10.213 4.31051 9.71544C3.92867 9.21744 3.36609 8.86768 2.70682 8.86768C2.04755 8.86768 1.48497 9.21744 1.10313 9.71544C0.721667 10.213 0.5 10.8787 0.5 11.5938C0.5 12.3088 0.721667 12.9745 1.10313 13.4721C1.48497 13.9701 2.04755 14.3198 2.70682 14.3198Z" fill="#D32027" stroke="white"/>
</svg>
