<svg width="184" height="36" viewBox="0 0 184 36" fill="none" xmlns="http://www.w3.org/2000/svg">
<path fill-rule="evenodd" clip-rule="evenodd" d="M17.9151 23.9078L22.8746 0.447814V0.39209H18.3052L13.3457 23.8521H8.60909C8.33046 23.8521 4.65265 23.7964 5.48851 20.23C6.38011 16.5522 9.66785 0.447814 9.66785 0.447814H5.09844C5.09844 0.447814 1.8107 15.995 0.584756 21.846C-0.585459 27.5299 4.70837 27.5857 4.87554 27.5857H15.6861C15.6861 27.5857 15.7976 30.0375 11.6182 33.0467C12.2312 33.6039 13.4571 34.3841 13.4571 34.3841C13.4571 34.3841 21.8158 31.5421 20.8685 23.9078H19.4196H17.9151ZM141.066 9.53091C141.011 8.52787 140.843 7.63628 140.565 7.07903L136.608 8.69504C136.618 8.73231 136.627 8.7694 136.636 8.80638C136.794 9.43292 136.943 10.0264 136.943 10.8683C136.943 11.6484 136.831 12.4843 136.608 13.5988L131.872 36.0001L136.274 34.997L137.556 28.8116C137.588 28.6492 137.63 28.4536 137.673 28.2525C137.778 27.7636 137.89 27.2421 137.89 27.0841C138.893 27.6971 140.398 27.9757 142.181 27.9757C144.688 27.9757 147.307 26.8055 149.146 24.7437C151.375 22.2361 152.936 17.2766 152.936 13.766C152.936 9.80954 151.097 7.30193 147.697 7.30193C145.301 7.30193 142.738 8.63932 141.011 10.7011C141.011 10.5061 141.024 10.3111 141.038 10.116C141.052 9.92098 141.066 9.72595 141.066 9.53091ZM145.859 22.5147C145.078 23.6292 143.685 24.6323 141.958 24.6323C140.62 24.6323 139.283 24.2422 138.67 23.5735L140.62 14.5461C142.404 12.0385 144.41 10.8683 146.026 10.8683C147.586 10.8683 148.255 11.8156 148.255 13.8774C148.255 16.385 147.363 20.3415 145.859 22.5147ZM50.9597 10.7569C51.1826 9.53091 51.0154 7.97063 50.6254 7.07903L46.6132 8.75077C46.9476 9.97671 47.0033 11.6484 46.5575 13.7103L43.6041 27.5857H47.8391L50.5697 14.6576C52.4086 12.3171 54.4146 10.9798 55.8078 10.9798C56.8108 10.9798 57.1451 11.4255 57.1451 12.3171C57.1451 12.7629 57.0337 13.5431 56.8108 14.4347L54.0246 27.6414H58.2596L61.0459 14.6576C62.6062 12.4843 64.5565 10.9798 66.0053 10.9798C67.0641 10.9798 67.5099 11.3698 67.5099 12.3729C67.5099 12.8187 67.4542 13.4316 67.287 14.156L64.4451 27.5857H68.6801L71.6335 13.7103C71.8007 12.9301 71.9679 11.9828 71.9679 11.2584C71.9679 8.75077 70.4076 7.24621 68.1229 7.24621C66.0053 7.24621 63.6649 8.19352 61.2688 10.7569C61.1573 8.47215 59.9314 7.24621 57.7581 7.24621C55.6406 7.24621 53.3002 8.30497 50.9597 10.7569ZM183.584 12.54C183.584 9.41946 180.965 7.13476 176.897 7.13476C173.665 7.13476 170.489 8.3607 167.424 10.534L169.04 13.153C170.935 11.9271 173.219 10.8126 175.56 10.8126C177.622 10.8126 178.792 11.7599 178.792 13.3759C178.792 14.8805 177.956 16.4965 176.34 17.2766C175.337 17.7781 173.832 17.8896 172.161 17.8896C171.603 17.8896 171.046 17.8339 170.489 17.7781L169.764 21.2331H171.158C173.219 21.2331 173.944 21.2888 174.835 21.5674C176.228 22.0132 176.897 23.072 176.897 24.4651C176.897 26.304 175.727 28.2544 173.944 29.536C171.993 30.9849 168.929 31.7093 165.585 31.7093C164.471 31.7093 164.081 31.7093 163.077 31.4864L163.468 34.607C164.638 34.7741 165.028 34.7741 166.142 34.7741C175.671 34.7741 181.857 30.0933 181.857 24.4651C181.857 22.2918 180.408 20.0628 177.956 19.6171C181.578 18.4468 183.584 15.6049 183.584 12.54ZM129.364 22.0132L132.485 7.24621L128.138 8.02635L125.408 20.7315C124.07 22.9605 121.674 24.6323 119.947 24.6323C118.999 24.6323 118.386 23.9636 118.386 22.7376C118.386 22.1804 118.554 21.1216 118.776 20.1186L121.507 7.19048L117.049 8.02635L114.319 20.9544C114.096 22.0689 113.984 23.1277 113.984 23.9636C113.984 26.6383 115.712 28.0315 118.554 28.0315C120.95 28.0315 123.179 26.8612 125.073 24.7994C125.018 26.3597 125.519 27.4185 126.244 28.3101L129.866 26.4154C129.364 25.7468 129.141 24.9666 129.141 23.9636C129.141 23.4063 129.197 22.7376 129.364 22.0132ZM110.585 8.91794C109.08 7.41338 106.963 7.24621 105.514 7.24621C103.842 7.24621 100.889 7.46911 98.8271 9.69809C97.3225 11.2026 96.7653 13.153 96.4309 14.7133L93.8676 26.8055L97.8241 27.0841L99.8301 18.7812H102.616C103.898 18.7812 104.734 18.9484 105.347 19.227C108.189 20.3415 106.406 25.8025 103.898 28.0872C99.9973 31.765 94.3691 32.0436 92.5859 32.0436H92.0287L91.7501 34.6627C91.7501 34.6627 92.7531 34.8298 94.3691 34.8298C96.7096 34.8298 100.276 34.4398 103.787 32.5451C111.142 28.6444 110.975 21.0659 110.975 21.0659C110.975 20.0071 110.696 19.1155 109.972 18.3354C109.582 17.8896 108.858 17.3881 107.799 17.1652C108.802 16.8308 109.805 16.3293 110.418 15.7163C111.031 15.1034 111.867 13.9332 111.867 12.15C111.867 10.9798 111.532 9.86526 110.585 8.91794ZM102.784 15.9392H100.387L100.722 14.3232C100.889 13.5431 101.223 12.3729 102.115 11.4813C102.672 10.8683 103.564 10.3668 104.957 10.3668C105.737 10.3668 106.461 10.534 106.907 10.9798C107.074 11.0912 107.52 11.5927 107.52 12.5958C107.52 13.3759 107.186 14.2675 106.517 14.8805C105.458 15.8835 104.065 15.9392 103.006 15.9392H102.784ZM92.4745 14.2118C92.4745 9.86526 90.0226 7.24621 85.4532 7.24621C78.8777 7.24621 74.1969 13.2645 74.1969 20.9544C74.1969 25.4681 76.7045 28.0315 81.1067 28.0315C88.4066 28.0315 92.4745 21.456 92.4745 14.2118ZM87.8494 14.0446C87.8494 18.8369 85.7876 24.7437 81.9426 24.7437C79.9922 24.7437 78.822 23.6849 78.822 21.2888C78.822 16.8308 80.8838 10.534 84.8402 10.534C86.5677 10.534 87.8494 11.4255 87.8494 14.0446ZM39.4247 22.0132L42.5453 7.24621L38.1988 8.02635L35.4683 20.7315C34.1309 22.9605 31.7348 24.6323 30.0073 24.6323C29.06 24.6323 28.447 23.9636 28.447 22.7376C28.447 22.1804 28.6142 21.1216 28.8371 20.1186L31.5676 7.19048L27.1096 8.02635L24.3791 20.9544C24.1562 22.0689 24.0448 23.1277 24.0448 23.9636C24.0448 26.6383 25.7722 28.0315 28.6142 28.0315C31.0103 28.0315 33.2393 26.8612 35.134 24.7994C35.0782 26.3597 35.5798 27.4185 36.3042 28.3101L39.9263 26.4154C39.4247 25.7468 39.2018 24.9666 39.2018 23.9636C39.2018 23.4063 39.2576 22.7376 39.4247 22.0132ZM164.192 21.2888L165.028 17.4995H156.446L155.61 21.2888H164.192Z" fill="#FCD000"/>
</svg>
