<svg width="2034" height="340" viewBox="0 0 2034 340" fill="none" xmlns="http://www.w3.org/2000/svg">
<path opacity="0.6" d="M2032.5 59.5C1886 228 1732 82.2386 1533.5 124.5C1378.5 157.5 1361.5 332.754 1194.5 338C1003.5 344 925.406 96.8621 1100 24C1290.5 -55.5 1413 222 1215.5 265.499C1053.55 301.168 1044.67 96.0702 910 24C782 -44.4999 592.395 52.0126 643 210C704.5 402 997.5 364 957.5 176C927.769 36.2654 725.96 -4.90076 540 95.0001C354.04 194.901 305 325 119.5 335.5C71.2712 338.23 33.0805 335.687 1 328.628" stroke="white" stroke-width="2" stroke-dasharray="3.5 3.5"/>
</svg>
