<svg width="35" height="26" viewBox="0 0 35 26" fill="none" xmlns="http://www.w3.org/2000/svg">
<path d="M14.2666 14.5L12.5322 17.5029C12.2705 17.958 12.1328 18.4756 12.1328 19C12.1328 20.6543 13.4785 22 15.1328 22C16.7871 22 18.1328 20.6543 18.1328 19C18.1328 18.4756 17.9951 17.958 17.7324 17.501L15.999 14.5C15.6416 13.8809 14.624 13.8809 14.2666 14.5Z" fill="#00C2FF"/>
<path d="M12.1328 4H15.1328C16.7871 4 18.1328 2.65427 18.1328 1V0H12.1328V4Z" fill="#00C2FF"/>
<path d="M1 12H13.3745C18.3453 12 22.6607 8.46286 23.6353 3.58886C23.813 2.70413 23.5865 1.79587 23.0142 1.0986C22.4419 0.4004 21.5962 0 20.6939 0H20.1333V1C20.1333 3.75686 17.8902 6 15.1333 6H11.1333C10.5806 6 10.1333 5.55273 10.1333 5V0H1C0.447266 0 0 0.447266 0 1V11C0 11.5527 0.447266 12 1 12Z" fill="#00C2FF"/>
<path d="M26.7686 14.3934C25.8493 13.474 24.4895 13.304 23.3765 13.8294L20.9411 11.394C20.3996 11.8099 19.8285 12.1822 19.2246 12.5056L21.9625 15.2436C21.4373 16.3566 21.6073 17.7165 22.5265 18.6356L29.5977 25.7069C29.9883 26.0975 30.6212 26.0975 31.0118 25.7069L33.8399 22.8788C34.2305 22.4882 34.2305 21.8553 33.8399 21.4647L26.7686 14.3934Z" fill="#00C2FF"/>
</svg>
