<svg width="43" height="33" viewBox="0 0 43 33" fill="none" xmlns="http://www.w3.org/2000/svg">
<path d="M37.3682 10.9846C35.323 5.34324 30.2334 1.23254 24.2883 0.236543C24.1895 0.200365 24.0841 0.172128 23.964 0.165731C23.8894 0.16165 23.8101 0.162312 23.735 0.159003C23.0002 0.0606168 22.2547 -0.000488281 21.4998 -0.000488281C14.3973 -0.000488281 7.99046 4.47729 5.63063 10.9847C2.61904 11.0192 0.179688 13.4796 0.179688 16.4996C0.179688 19.5195 2.61904 21.9803 5.63052 22.0146C7.98957 28.522 14.3972 33.0004 21.4997 33.0004C28.6014 33.0004 35.0087 28.522 37.3682 22.0146C40.3797 21.9803 42.8198 19.5195 42.8198 16.4996C42.8198 13.4796 40.3803 11.0197 37.3682 10.9846ZM37.3043 19.9514C37.1551 19.9514 36.9926 19.9372 36.7924 19.909L35.9147 19.7794L35.656 20.6289C33.8051 26.6977 27.9834 30.9371 21.4996 30.9371C15.0154 30.9371 9.19304 26.6977 7.34245 20.6276L7.08381 19.7787L6.20572 19.9077C6.00619 19.9372 5.84438 19.9507 5.6946 19.9507C3.79085 19.9507 2.24282 18.4019 2.24282 16.4983C2.24282 14.5945 3.79096 13.0465 5.6946 13.0465C5.84604 13.0465 6.00829 13.0603 6.2034 13.0892L7.08325 13.2204L7.34256 12.3698C8.59776 8.25511 11.6795 4.98698 15.5535 3.30526C14.6891 5.2207 15.8631 7.58252 17.8209 8.50395C20.2606 9.65171 24.2076 9.80183 25.8719 7.30467C26.6228 6.1793 25.9566 4.75656 25.0485 3.98624C23.7778 2.90863 21.9322 2.7552 20.4234 3.35423C19.202 3.8391 19.7337 5.83495 20.9721 5.34401C21.8691 4.9883 22.6857 4.9615 23.5468 5.43391C24.7274 6.08301 23.6395 6.82443 22.814 7.06158C21.2753 7.50376 19.0052 7.14287 17.8023 6.06327C16.2837 4.7002 18.2398 3.15338 19.4501 2.72961C20.7624 2.27022 22.2048 2.16842 23.5937 2.21849C29.2065 3.01705 34.0079 6.96286 35.6574 12.3697L35.9166 13.2203L36.7966 13.089C36.9926 13.0601 37.1539 13.0464 37.3056 13.0464C39.209 13.0464 40.7579 14.5945 40.7579 16.4981C40.7579 18.4019 39.2076 19.9514 37.3043 19.9514Z" fill="#00C2FF"/>
<path d="M17.1429 15.7832C15.369 15.7832 15.369 18.5338 17.1429 18.5338C18.9167 18.5338 18.9172 15.7832 17.1429 15.7832Z" fill="#00C2FF"/>
<path d="M25.8557 15.6108C24.082 15.6108 24.082 18.3615 25.8557 18.3615C27.6295 18.3615 27.6301 15.6108 25.8557 15.6108Z" fill="#00C2FF"/>
<path d="M21.4997 26.2871C23.7362 26.2871 25.5566 24.4677 25.5566 22.2313C25.5566 21.6604 25.0952 21.1996 24.525 21.1996C23.9548 21.1996 23.4934 21.6604 23.4934 22.2313C23.4934 23.33 22.5995 24.224 21.4996 24.224C20.4009 24.224 19.5062 23.33 19.5062 22.2313C19.5062 21.6604 19.0455 21.1996 18.4746 21.1996C17.905 21.1996 17.4429 21.6604 17.4429 22.2313C17.443 24.4677 19.2631 26.2871 21.4997 26.2871Z" fill="#00C2FF"/>
</svg>
