<svg width="26" height="24" viewBox="0 0 26 24" fill="none" xmlns="http://www.w3.org/2000/svg">
<path d="M25.2634 16.9502L16.725 2.15337C15.9556 0.821003 14.5341 0 12.9953 0C11.4565 0 10.035 0.821003 9.26556 2.15337L0.577048 17.2035C-0.192349 18.5359 -0.192349 20.1779 0.577048 21.5103C1.34645 22.8427 2.76795 23.6637 4.30675 23.6637H21.6839C21.6886 23.6637 21.6933 23.6637 21.6933 23.6637C24.0718 23.6637 26 21.7354 26 19.3569C26 18.4655 25.7279 17.6351 25.2634 16.9502ZM14.839 18.3904C14.839 19.4085 14.0556 20.1873 13 20.1873C11.9444 20.1873 11.161 19.4085 11.161 18.3904V18.3482C11.161 17.3349 11.9444 16.5514 13 16.5514C14.0556 16.5514 14.839 17.3302 14.839 18.3482V18.3904ZM14.8813 6.27716L13.9711 14.2245C13.9101 14.7968 13.5301 15.1534 13 15.1534C12.4699 15.1534 12.0899 14.7921 12.0289 14.2245L11.1187 6.27247C11.0577 5.65789 11.3909 5.19343 11.9632 5.19343H14.0321C14.6045 5.19812 14.9423 5.66258 14.8813 6.27716Z" fill="#00C2FF"/>
</svg>
