<svg width="32" height="32" viewBox="0 0 32 32" fill="none" xmlns="http://www.w3.org/2000/svg">
<path d="M1.23466 24.8206L17.6939 8.36134L18.7289 7.32642C18.9948 7.06046 19.4261 7.06046 19.6921 7.32642L20.7269 8.36134L23.6386 11.2731L24.6736 12.308C24.9395 12.574 24.9395 13.0052 24.6736 13.2712L23.6386 14.3061L7.17936 30.7653L6.14448 31.8003C5.87846 32.0663 5.44726 32.0663 5.18127 31.8003L4.14638 30.7653L1.2347 27.8537L0.199743 26.8188C-0.0662136 26.5527 -0.0662136 26.1215 0.199743 25.8556L1.23466 24.8206ZM19.2105 9.87785L15.6113 13.4771L18.523 16.3887L22.1222 12.7895L19.2105 9.87785Z" fill="#00C2FF"/>
<path d="M23.7551 9.06359L22.9369 8.24538C22.671 7.97943 22.671 7.54816 22.9369 7.28217L25.8453 4.37381C26.1113 4.10782 26.5425 4.10782 26.8085 4.37381L27.6267 5.19206C27.8927 5.45805 27.8927 5.88928 27.6267 6.15527L24.7183 9.06363C24.4524 9.32958 24.0211 9.32958 23.7551 9.06359Z" fill="#00C2FF"/>
<path d="M17.1599 5.47523C16.7837 5.47523 16.4787 5.1703 16.4787 4.79416V0.681106C16.4787 0.304933 16.7837 0 17.1598 0H18.3169C18.6931 0 18.998 0.304933 18.998 0.681106V4.79416C18.998 5.17033 18.6931 5.47527 18.3169 5.47527L17.1599 5.47523Z" fill="#00C2FF"/>
<path d="M27.2058 13.0024L31.3189 13.0025C31.6951 13.0025 32 13.3074 32 13.6836V14.8407C32 15.2169 31.6951 15.5219 31.3189 15.5219H27.2058C26.8297 15.5219 26.5247 15.2169 26.5247 14.8407V13.6836C26.5248 13.3074 26.8297 13.0024 27.2058 13.0024Z" fill="#00C2FF"/>
</svg>
