<svg width="34" height="26" viewBox="0 0 34 26" fill="none" xmlns="http://www.w3.org/2000/svg">
<path d="M29.3776 8.69765C27.7823 4.29722 23.8122 1.09071 19.1748 0.313799C19.0977 0.285579 19.0155 0.263554 18.9218 0.258564C18.8636 0.25538 18.8017 0.255896 18.7432 0.253315C18.17 0.176571 17.5885 0.128906 16.9996 0.128906C11.4595 0.128906 6.46183 3.62174 4.62108 8.69774C2.27193 8.72467 0.369141 10.6439 0.369141 12.9996C0.369141 15.3553 2.27193 17.2747 4.62099 17.3015C6.46115 22.3775 11.4594 25.8709 16.9995 25.8709C22.5392 25.8709 27.5371 22.3775 29.3776 17.3015C31.7267 17.2747 33.63 15.3553 33.63 12.9996C33.63 10.6439 31.7271 8.7251 29.3776 8.69765ZM29.3277 15.6921C29.2113 15.6921 29.0846 15.6811 28.9284 15.6591L28.2438 15.558L28.042 16.2206C26.5982 20.9545 22.0571 24.2614 16.9994 24.2614C11.9415 24.2614 7.39989 20.9545 5.95637 16.2196L5.75461 15.5575L5.06967 15.658C4.91403 15.6811 4.78782 15.6916 4.67098 15.6916C3.18598 15.6916 1.97846 14.4835 1.97846 12.9985C1.97846 11.5136 3.18607 10.306 4.67098 10.306C4.78911 10.306 4.91567 10.3168 5.06787 10.3393L5.75418 10.4417L5.95646 9.77819C6.93555 6.56859 9.33942 4.01932 12.3613 2.70751C11.687 4.20163 12.6028 6.04394 14.1299 6.76269C16.033 7.65799 19.1118 7.77508 20.41 5.82721C20.9958 4.94938 20.4761 3.83959 19.7678 3.23871C18.7765 2.39813 17.3369 2.27845 16.16 2.74571C15.2073 3.12393 15.622 4.68077 16.588 4.29782C17.2877 4.02035 17.9247 3.99944 18.5964 4.36794C19.5173 4.87427 18.6686 5.4526 18.0247 5.63758C16.8245 5.9825 15.0537 5.70099 14.1154 4.85886C12.9309 3.79562 14.4567 2.58904 15.4008 2.25849C16.4245 1.90015 17.5496 1.82073 18.6329 1.85979C23.0112 2.4827 26.7565 5.56058 28.0431 9.7781L28.2453 10.4416L28.9317 10.3392C29.0846 10.3167 29.2104 10.3059 29.3288 10.3059C30.8135 10.3059 32.0216 11.5136 32.0216 12.9985C32.0216 14.4835 30.8124 15.6921 29.3277 15.6921Z" fill="#283C80"/>
<path d="M13.6022 12.4407C12.2185 12.4407 12.2185 14.5863 13.6022 14.5863C14.9858 14.5863 14.9863 12.4407 13.6022 12.4407Z" fill="#283C80"/>
<path d="M20.397 12.3064C19.0135 12.3064 19.0135 14.452 20.397 14.452C21.7807 14.452 21.7812 12.3064 20.397 12.3064Z" fill="#283C80"/>
<path d="M16.9995 20.634C18.744 20.634 20.1641 19.2149 20.1641 17.4704C20.1641 17.025 19.8041 16.6656 19.3594 16.6656C18.9145 16.6656 18.5547 17.025 18.5547 17.4704C18.5547 18.3274 17.8574 19.0247 16.9995 19.0247C16.1424 19.0247 15.4445 18.3274 15.4445 17.4704C15.4445 17.025 15.0851 16.6656 14.6398 16.6656C14.1955 16.6656 13.835 17.025 13.835 17.4704C13.8351 19.2149 15.2549 20.634 16.9995 20.634Z" fill="#283C80"/>
</svg>
