<svg width="27" height="32" viewBox="0 0 27 32" fill="none" xmlns="http://www.w3.org/2000/svg">
<path d="M25.3638 22.8808C24.8707 22.0263 24.1431 21.4704 23.2011 21.2289C22.9761 21.1712 22.7493 21.135 22.5243 21.1206C22.5533 20.7969 22.5685 20.4708 22.5685 20.1453C22.5685 19.732 22.5448 19.3183 22.4979 18.9085C24.1721 18.6794 25.4636 17.2879 25.4636 15.6106C25.4636 13.774 23.9145 12.2797 22.0104 12.2797C21.8236 12.2797 21.6393 12.2947 21.4583 12.3226C21.8497 11.3798 22.0653 10.352 22.0653 9.27676C22.0653 8.57769 21.9747 7.88783 21.7955 7.21826C23.1693 6.638 24.0834 5.32332 24.0834 3.83629C24.0835 1.79971 22.3645 0.142822 20.2515 0.142822C18.9634 0.142822 17.7713 0.770068 17.0673 1.78088C15.9455 1.28504 14.7136 1.02507 13.4706 1.02507C12.2276 1.02507 10.9957 1.28504 9.87399 1.78088C9.16984 0.770068 7.97766 0.142822 6.68956 0.142822C4.57656 0.142822 2.85748 1.79977 2.85748 3.83641C2.85748 5.3235 3.77176 6.63819 5.14549 7.21844C4.9663 7.8882 4.87571 8.57812 4.87571 9.27688C4.87571 10.3521 5.09129 11.3799 5.48267 12.3228C5.30166 12.2948 5.11739 12.2798 4.93063 12.2798C3.02649 12.2798 1.47739 13.7741 1.47739 15.6107C1.47739 17.2879 2.76907 18.6794 4.44309 18.9087C4.39616 19.3187 4.37242 19.7325 4.37242 20.1454C4.37242 20.4799 4.38847 20.8149 4.41917 21.1474C4.3958 21.1469 4.37248 21.1462 4.34899 21.1462C4.05262 21.1462 3.75105 21.185 3.45251 21.2615C2.51055 21.503 1.78296 22.0587 1.28979 22.9133C0.436243 24.3925 0.480873 26.5785 0.90368 28.0889C1.40806 29.89 3.11151 31.1478 5.04642 31.1478C5.1275 31.1478 5.20871 31.1451 5.28973 31.1407C5.29325 31.1406 5.2967 31.1406 5.30021 31.1404C5.30554 31.1402 5.31087 31.1397 5.3162 31.1394C5.3225 31.139 5.32873 31.1386 5.33497 31.1382C6.92113 31.0519 8.3175 30.1156 8.97793 28.7645C10.343 29.6109 11.881 30.0546 13.4704 30.0546C14.9877 30.0546 16.4658 29.6461 17.7872 28.8689C17.8085 28.9087 17.8295 28.9488 17.8522 28.9881C18.4235 29.978 19.3638 30.6837 20.4999 30.975C20.8624 31.068 21.2349 31.1152 21.607 31.1152C23.5419 31.1152 25.2454 29.8573 25.7496 28.0563C26.1727 26.546 26.2173 24.3599 25.3638 22.8808ZM4.06897 3.83641C4.06897 2.46777 5.24456 1.35426 6.68956 1.35426C7.72326 1.35426 8.6634 1.93251 9.08464 2.82748C9.155 2.97699 9.28344 3.0912 9.44004 3.14377C9.5967 3.19627 9.76796 3.18252 9.91432 3.10574C10.997 2.53705 12.2267 2.23651 13.4704 2.23651C14.7142 2.23651 15.9439 2.53705 17.0266 3.10574C17.1729 3.18258 17.3443 3.19633 17.5009 3.14377C17.6575 3.0912 17.7859 2.97693 17.8563 2.82748C18.2776 1.93251 19.2176 1.35426 20.2514 1.35426C21.6964 1.35426 22.872 2.46771 22.872 3.83641C22.872 4.80477 22.283 5.66583 21.3904 6.07265C21.2465 5.74498 21.081 5.4259 20.8948 5.11943C20.7211 4.83354 20.3487 4.74264 20.0627 4.9162C19.7768 5.08987 19.6858 5.46242 19.8595 5.74831C20.1065 6.15494 20.3115 6.58708 20.4687 7.03283C20.4725 7.04373 20.477 7.05415 20.4813 7.06469C20.7281 7.77592 20.8538 8.51986 20.8538 9.27688C20.8538 12.9644 17.865 15.9986 14.0761 16.2935V11.7896C14.9529 11.4893 15.5723 10.5784 15.5723 9.77423C15.5723 9.33326 15.3675 8.30755 13.4704 8.30755C11.5733 8.30755 11.3685 9.33326 11.3685 9.77423C11.3685 10.5784 11.9878 11.4893 12.8647 11.7896V16.2935C9.0758 15.9987 6.08702 12.9645 6.08702 9.27688C6.08702 8.50878 6.21595 7.75352 6.47029 7.03205C6.52727 6.87036 6.5131 6.6922 6.43123 6.54154C6.34942 6.39087 6.20759 6.28205 6.04094 6.24184C4.87989 5.96195 4.06897 4.97276 4.06897 3.83641ZM13.4706 20.979C13.1361 20.979 12.8649 21.2502 12.8649 21.5847V23.4206C10.8129 23.1257 9.23064 21.3568 9.23064 19.2246C9.23064 18.3615 9.49527 17.5222 9.98148 16.8173C11.0483 17.2742 12.229 17.5286 13.4706 17.5286C14.7121 17.5286 15.8928 17.2742 16.9597 16.8173C17.4459 17.5223 17.7106 18.3615 17.7106 19.2246C17.7106 21.3568 16.1283 23.1257 14.0764 23.4206V21.5847C14.0763 21.2502 13.8051 20.979 13.4706 20.979ZM12.5801 9.77423C12.5801 9.71519 12.5801 9.69072 12.6802 9.64143C12.773 9.59571 12.9992 9.51905 13.4706 9.51905C13.9419 9.51905 14.1681 9.59577 14.261 9.64143C14.3611 9.69072 14.3611 9.71519 14.3611 9.77423C14.3611 10.1156 13.9448 10.6806 13.4705 10.6806C12.9962 10.6805 12.5801 10.1156 12.5801 9.77423ZM7.75215 28.4153C7.34509 29.1206 6.67055 29.6245 5.85279 29.8342C5.65483 29.885 5.453 29.9169 5.25049 29.9298C5.24995 29.9298 5.2494 29.9299 5.24892 29.93C5.18152 29.9342 5.11406 29.9363 5.04666 29.9363C3.65277 29.9364 2.42898 29.0423 2.07048 27.7622C1.72749 26.5371 1.6653 24.6867 2.33923 23.5187C2.66794 22.9492 3.13053 22.5946 3.7536 22.4348C3.95386 22.3835 4.15424 22.3574 4.34911 22.3574C4.55397 22.3574 4.75278 22.3858 4.94493 22.4383C4.95401 22.441 4.96303 22.4438 4.9723 22.4462C6.53266 22.8921 7.65278 24.9245 8.0272 26.262C8.23097 26.9901 8.13329 27.7548 7.75215 28.4153ZM17.46 25.9029C17.2934 26.4979 17.2675 27.1096 17.3765 27.7006C16.1899 28.4486 14.8482 28.8432 13.4706 28.8432C11.9891 28.8432 10.5573 28.3912 9.30906 27.5335C9.3787 27.0051 9.34176 26.4638 9.19388 25.9355C8.75297 24.3606 7.51156 22.1577 5.66718 21.408C5.6122 20.9913 5.5841 20.5681 5.5841 20.1453C5.5841 19.5721 5.63545 18.997 5.73682 18.4362C5.77007 18.2522 5.71654 18.0632 5.59167 17.924C5.4668 17.7848 5.28459 17.711 5.09825 17.7242C5.04272 17.7282 4.98647 17.7301 4.93094 17.7301C3.6948 17.7301 2.68913 16.7792 2.68913 15.6106C2.68913 14.4419 3.6948 13.4911 4.93094 13.4911C5.52227 13.4911 6.07824 13.7067 6.49984 14.0979C7.14634 14.9571 7.96065 15.6925 8.89631 16.2596C8.32701 17.1382 8.01932 18.1679 8.01932 19.2246C8.01932 22.2305 10.4648 24.6759 13.4707 24.6759C16.4765 24.6759 18.9221 22.2304 18.9221 19.2246C18.9221 18.1679 18.6144 17.1382 18.0451 16.2596C18.9808 15.6926 19.7951 14.9572 20.4415 14.0979C20.8632 13.7065 21.4192 13.4911 22.0105 13.4911C23.2466 13.4911 24.2523 14.4419 24.2523 15.6106C24.2523 16.7792 23.2466 17.7301 22.0105 17.7301C21.955 17.7301 21.8987 17.7281 21.843 17.7242C21.6566 17.711 21.4744 17.7848 21.3495 17.924C21.2248 18.0632 21.1711 18.2522 21.2044 18.4363C21.3057 18.9964 21.3571 19.5714 21.3571 20.1452C21.3571 20.5203 21.3351 20.896 21.2918 21.2665C19.2792 21.8844 17.9249 24.2427 17.46 25.9029ZM24.5833 27.7298C24.2249 29.0099 23.0012 29.9039 21.6073 29.9039C21.3366 29.9039 21.0653 29.8696 20.801 29.8018C19.9832 29.5921 19.3086 29.0881 18.9017 28.3828C18.5205 27.7222 18.4228 26.9575 18.6265 26.2297C19.0209 24.8213 20.2418 22.6428 21.9328 22.3568C21.9394 22.3557 21.946 22.3546 21.9526 22.3533C22.0678 22.3348 22.1852 22.3251 22.3047 22.3251C22.4996 22.3251 22.7 22.3512 22.9002 22.4025C23.5232 22.5623 23.9859 22.9168 24.3146 23.4864C24.9885 24.6541 24.9263 26.5046 24.5833 27.7298Z" fill="#283C80"/>
<path d="M17.2787 7.00415C16.7197 7.00415 16.2637 7.44058 16.2637 7.9756C16.2637 8.51068 16.7197 8.94711 17.2787 8.94711C17.8378 8.94711 18.2937 8.51068 18.2937 7.9756C18.2937 7.44058 17.8378 7.00415 17.2787 7.00415Z" fill="#283C80"/>
<path d="M9.66153 7.00415C9.10248 7.00415 8.64648 7.44058 8.64648 7.9756C8.64648 8.51068 9.10241 8.94711 9.66153 8.94711C10.2205 8.94711 10.6765 8.51068 10.6765 7.9756C10.6765 7.44058 10.2205 7.00415 9.66153 7.00415Z" fill="#283C80"/>
<path d="M19.6776 3.56898L19.6634 3.55499C19.4232 3.32221 19.0389 3.32724 18.806 3.56747C18.5732 3.80763 18.5782 4.19017 18.8184 4.42301C18.8189 4.42337 18.8217 4.42628 18.8222 4.4267C18.9401 4.54467 19.0943 4.60353 19.2487 4.60353C19.4035 4.60353 19.5584 4.5443 19.6769 4.42616C19.9135 4.19023 19.9131 3.806 19.6776 3.56898Z" fill="#283C80"/>
<path d="M13.4709 19.2246C13.1364 19.2246 12.8652 19.4958 12.8652 19.8303V19.8446C12.8652 20.1791 13.1364 20.4503 13.4709 20.4503C13.8054 20.4503 14.0766 20.1791 14.0766 19.8446V19.8303C14.0766 19.4958 13.8054 19.2246 13.4709 19.2246Z" fill="#283C80"/>
</svg>
