<svg width="35" height="21" viewBox="0 0 35 21" fill="none" xmlns="http://www.w3.org/2000/svg">
<path d="M3.97091 15.6743C4.14834 15.6743 4.32386 15.66 4.49697 15.6314V19.5488C4.49697 19.9988 4.86126 20.3621 5.3103 20.3621H10.1826C10.1864 20.3621 10.1909 20.3621 10.1935 20.3621C10.6431 20.3621 11.0068 19.9989 11.0068 19.5488C11.0068 19.3624 10.9439 19.1903 10.8376 19.0521C10.7201 18.8223 10.6602 18.5829 10.6602 18.3388C10.6602 17.4535 11.3808 16.7328 12.2663 16.7328C13.1524 16.7328 13.873 17.4535 13.873 18.3388C13.873 18.6135 13.797 18.8826 13.648 19.1389C13.501 19.391 13.5005 19.7013 13.6451 19.9543C13.7904 20.2065 14.0594 20.3621 14.3507 20.3621H18.9164C19.0377 20.4342 19.1775 20.4781 19.3289 20.4781H24.2009C24.204 20.4781 24.2089 20.4786 24.2115 20.4781C24.6611 20.4781 25.0248 20.1143 25.0248 19.6646C25.0248 19.4778 24.9623 19.3057 24.8564 19.1686C24.7388 18.9377 24.6786 18.6983 24.6786 18.4548C24.6786 17.5696 25.3998 16.8488 26.2851 16.8488C27.1704 16.8488 27.8911 17.5696 27.8911 18.4548C27.8911 18.7301 27.8153 18.9992 27.6661 19.2555C27.5199 19.5076 27.5188 19.8179 27.6644 20.0698C27.8095 20.3224 28.078 20.4781 28.3693 20.4781H33.2408C33.6899 20.4781 34.0542 20.1143 34.0542 19.6646V14.7926C34.0542 14.5014 33.8985 14.2324 33.6464 14.0877C33.3933 13.9422 33.0831 13.9432 32.8321 14.0898C32.5752 14.2386 32.3057 14.3148 32.0309 14.3148C31.1456 14.3148 30.4249 13.5942 30.4249 12.7089C30.4249 11.823 31.1456 11.1029 32.0309 11.1029C32.3056 11.1029 32.5752 11.1786 32.8321 11.3279C33.0831 11.4746 33.3934 11.4756 33.6464 11.33C33.8985 11.1844 34.0542 10.9165 34.0542 10.625V5.7528C34.0542 5.30326 33.6899 4.93947 33.2408 4.93947H29.4453C29.493 4.71897 29.5178 4.49224 29.5178 4.2622C29.5178 2.4793 28.0676 1.02956 26.2852 1.02956C24.5029 1.02956 23.052 2.4799 23.052 4.2622C23.052 4.49234 23.0763 4.71897 23.1251 4.93947H19.6356C19.5138 4.86737 19.3742 4.82349 19.2226 4.82349H15.4264C15.4754 4.60269 15.4997 4.37606 15.4997 4.14572C15.4997 2.36282 14.0491 0.913086 12.2663 0.913086C10.4842 0.913086 9.03364 2.36282 9.03364 4.14572C9.03364 4.37556 9.05804 4.60219 9.10644 4.82349H5.3103C4.86126 4.82349 4.49697 5.18728 4.49697 5.63682V9.25172C4.32436 9.22341 4.14824 9.20885 3.97091 9.20885C2.18862 9.20905 0.738281 10.6594 0.738281 12.4417C0.738281 14.224 2.18862 15.6743 3.97091 15.6743ZM20.1417 6.56573H24.392C24.7039 6.56573 24.9888 6.3873 25.1244 6.10695C25.26 5.8268 25.2239 5.49324 25.0301 5.24863C24.8697 5.0453 24.6786 4.70933 24.6786 4.2624C24.6786 3.37707 25.3998 2.65642 26.2851 2.65642C27.1704 2.65642 27.8911 3.37707 27.8911 4.2624C27.8911 4.70983 27.7 5.0453 27.5395 5.24863C27.3462 5.49324 27.3097 5.8268 27.4457 6.10695C27.5814 6.3879 27.8651 6.56573 28.1775 6.56573H32.4284V9.50185C32.2967 9.48518 32.1642 9.47644 32.0319 9.47644C30.2495 9.47644 28.7993 10.9262 28.7993 12.7091C28.7993 14.492 30.2495 15.9417 32.0319 15.9417C32.1642 15.9417 32.2967 15.9333 32.4284 15.9163V18.8518H29.4918C29.5098 18.7201 29.5183 18.5876 29.5183 18.4558C29.5183 16.6724 28.0675 15.2227 26.2851 15.2227C24.5033 15.2227 23.053 16.6735 23.053 18.4558C23.053 18.5876 23.0615 18.7201 23.0789 18.8518H20.1427V14.5713C20.1427 14.2716 19.9775 13.9957 19.7134 13.8543C19.4491 13.7135 19.1283 13.7287 18.8783 13.8945C18.6142 14.0714 18.3065 14.1645 17.9898 14.1645C17.4441 14.1645 16.9626 13.8892 16.6719 13.4719C16.5056 13.2199 16.4074 12.9175 16.4074 12.5935C16.4074 11.7077 17.1282 10.9875 18.0142 10.9875C18.289 10.9875 18.5575 11.0632 18.8144 11.2119C18.8843 11.2532 18.9589 11.2797 19.0357 11.2977C19.2544 11.3834 19.5012 11.375 19.7135 11.2618C19.9777 11.1199 20.1428 10.8445 20.1428 10.5447V6.56543H20.1417V6.56573ZM3.97091 10.8357C4.28751 10.8357 4.59437 10.9289 4.85915 11.1052C5.10857 11.2726 5.42999 11.2874 5.69417 11.1455C5.95815 11.0046 6.12363 10.7283 6.12363 10.4284V6.45025H10.374C10.6859 6.45025 10.97 6.27182 11.1061 5.99148C11.2422 5.71113 11.2059 5.37776 11.0126 5.13316C10.8516 4.92983 10.6608 4.59305 10.6608 4.14642C10.6608 3.2608 11.3815 2.54035 12.2669 2.54035C13.153 2.54035 13.8737 3.2608 13.8737 4.14642C13.8737 4.59255 13.6817 4.92983 13.5218 5.13376C13.3285 5.37847 13.2923 5.71173 13.4283 5.99208C13.5644 6.27243 13.8484 6.45035 14.1603 6.45035H18.4102V9.35926C18.2709 9.34099 18.1317 9.32512 17.9897 9.32512C16.2076 9.32512 14.7574 10.7761 14.7574 12.5584C14.7574 13.2345 14.9673 13.8625 15.3234 14.382C15.9035 15.2514 16.8926 15.8259 18.0141 15.8259C18.1464 15.8259 18.2789 15.817 18.4102 15.8V18.7367H15.4746C15.4921 18.6048 15.5008 18.4724 15.5008 18.34C15.5008 16.5572 14.0503 15.1075 12.2677 15.1075C10.4854 15.1075 9.03474 16.5572 9.03474 18.34C9.03474 18.4724 9.04348 18.6048 9.06095 18.7367H6.12473V14.4561C6.12473 14.1559 5.95925 13.88 5.69527 13.7381C5.43159 13.5973 5.11018 13.6126 4.86025 13.7794C4.59607 13.9552 4.28872 14.0485 3.97202 14.0485C3.08669 14.0485 2.36594 13.3283 2.36594 12.4424C2.36594 11.5569 3.08559 10.8357 3.97091 10.8357Z" fill="#283C80"/>
</svg>
